@startuml
'https://plantuml.com/class-diagram

class Client
class ConcreteFactory
abstract AbstractProduct
interface AbstractFactory
class ConcreteProduct

Client ..>AbstractFactory
AbstractProduct <|-- ConcreteProduct
AbstractFactory <|.. ConcreteFactory
ConcreteFactory <.. ConcreteProduct

@enduml